<svg width="582" height="89" viewBox="0 0 582 89" fill="none" xmlns="http://www.w3.org/2000/svg">
<path fill-rule="evenodd" clip-rule="evenodd" d="M19.3277 33.8079C18.4446 28.1521 19.4034 21.9553 21.8509 16.7421C33.7856 -8.41413 76.8565 -3.56979 77.109 29.6521C77.109 30.9309 77.0837 32.2095 76.9827 33.4883C82.4833 35.5784 87.5549 39.4883 90.9612 44.136C107.488 66.7101 81.6254 100.448 51.8013 84.0465C50.6406 83.4072 49.5304 82.7433 48.4454 82.0055C43.8279 85.5712 37.7975 87.8826 31.9185 88.4237C3.45679 91.0057 -13.7514 52.423 15.8205 35.6276C16.9559 34.9637 18.1418 34.3735 19.3277 33.8079ZM73.6774 48.0213C71.028 55.1525 67.0414 61.8904 62.323 67.9152C58.2858 66.1692 54.0217 63.3659 50.8172 60.8085C57.7055 52.3739 63.736 40.5211 62.1716 30.0456C59.9512 13.1026 37.0153 13.5945 33.9117 29.3325C41.6075 27.98 49.6313 27.98 57.3776 28.9144C57.8317 33.1686 57.4785 38.1604 56.7719 42.1195C45.7708 40.5704 32.196 41.4311 23.592 47.9721C9.56292 58.3248 21.4724 77.3087 37.091 72.0217C32.0446 66.2429 28.0074 59.5051 24.9797 52.546C28.5626 50.0378 33.1801 47.8492 37.091 46.4721C41.2038 56.4804 48.7734 67.4478 58.9167 71.3824C75.1913 77.948 86.2176 58.4723 73.6774 48.0213Z" fill="white"/>
<path fill-rule="evenodd" clip-rule="evenodd" d="M125.621 22.5803H141.032V9.77441H125.621V22.5803ZM126.001 79.1082H140.599V28.2063H126.001V79.1082ZM153.242 79.1082H167.838V50.7103C167.838 43.8519 171.42 40.3691 176.955 40.3691C182.544 40.3691 185.8 43.9055 185.8 50.7103V79.1082H200.397V46.1559C200.397 34.4753 193.94 27.2418 182.87 27.2418C175.436 27.2418 171.148 31.1532 167.784 35.3861V28.1527H153.187V79.1082H153.242ZM233.172 80.0726C240.77 80.0726 245.653 76.5363 249.234 71.8212V79.1617H263.832V9.77441H249.234V34.8503C245.762 30.7782 240.987 27.2418 233.172 27.2418C220.963 27.2418 209.676 36.5649 209.676 53.55C209.73 70.7496 221.18 80.0726 233.172 80.0726ZM236.917 67.8026C230.08 67.8026 224.328 62.1765 224.328 53.7644C224.328 45.0307 230.08 39.5118 236.917 39.5118C243.754 39.5118 249.398 45.1378 249.398 53.55C249.452 62.2302 243.754 67.8026 236.917 67.8026ZM301.111 80.2869C317.173 80.2869 329.112 68.392 329.112 53.7644C329.112 38.9224 317.282 27.2418 301.328 27.2418C285.266 27.2418 273.327 39.1368 273.327 53.7644C273.327 68.5528 285.157 80.2869 301.111 80.2869ZM301.274 67.8026C293.188 67.8026 287.708 61.2657 287.708 53.7644C287.708 46.0487 292.7 39.7262 301.057 39.7262C309.142 39.7262 314.623 46.2631 314.623 53.7644C314.677 61.4264 309.685 67.8026 301.274 67.8026ZM339.204 79.1082H353.802V9.77441H339.204V79.1082ZM390.863 80.2869C400.197 80.2869 407.143 76.697 411.918 70.8031L403.561 63.4626C399.546 67.1596 395.965 68.7134 391.081 68.7134C384.515 68.7134 379.903 65.2842 378.492 58.7474H414.361C414.469 57.4078 414.577 56.0683 414.577 54.9432C414.577 40.5298 406.709 27.2954 389.453 27.2954C374.422 27.2954 363.949 39.244 363.949 53.8179C363.949 69.5172 375.398 80.2869 390.863 80.2869ZM378.275 49.6922C379.414 43.1554 383.375 38.8688 389.453 38.8688C395.64 38.8688 399.437 43.2625 400.306 49.6922H378.275ZM438.887 80.0726C445.996 80.0726 450.934 77.5008 454.462 73.5893V79.1082H468.625V49.5851C468.625 42.7268 466.888 37.1543 463.036 33.35C459.399 29.7601 453.593 27.6704 445.616 27.6704C436.879 27.6704 431.291 29.2779 425.592 31.7426L429.229 42.7803C433.95 41.0657 437.911 40.0477 443.446 40.0477C450.771 40.0477 454.516 43.3696 454.516 49.3707V50.228C450.88 48.9957 447.082 48.1383 441.927 48.1383C429.718 48.1383 421.144 53.2822 421.144 64.3733C421.144 74.5537 429.175 80.0726 438.887 80.0726ZM443.283 70.1065C438.562 70.1065 435.306 67.8025 435.306 63.9447C435.306 59.176 439.159 56.7113 445.399 56.7113C448.98 56.7113 452.236 57.4615 454.733 58.5866V61.1585C454.733 66.4095 450.12 70.1065 443.283 70.1065ZM501.183 80.0726C508.78 80.0726 513.717 76.5363 517.245 71.8212V79.1617H531.843V9.77441H517.245V34.8503C513.773 30.7782 508.996 27.2418 501.183 27.2418C488.973 27.2418 477.686 36.5649 477.686 53.55C477.741 70.7496 489.191 80.0726 501.183 80.0726ZM504.981 67.8026C498.144 67.8026 492.393 62.1765 492.393 53.7644C492.393 45.0307 498.144 39.5118 504.981 39.5118C511.819 39.5118 517.462 45.1378 517.462 53.55C517.462 62.2302 511.819 67.8026 504.981 67.8026ZM561.905 80.0726C573.082 80.0726 581.602 74.9289 581.602 63.6233C581.602 54.1394 573.246 50.7102 566.029 48.3527C560.439 46.4773 555.555 45.1378 555.555 42.298C555.555 40.1012 557.401 38.6009 560.927 38.6009C564.672 38.6009 569.772 40.4227 574.873 43.3696L580.462 33.4036C574.873 29.7066 567.764 27.5098 561.199 27.5098C550.834 27.5098 542.369 33.2965 542.369 43.6375C542.369 53.7108 550.564 57.0328 557.78 59.1225C563.478 60.837 568.47 61.855 568.47 65.0163C568.47 67.4811 566.572 68.9814 562.338 68.9814C557.509 68.9814 551.648 66.8917 546.059 62.9267L539.819 72.4106C546.602 77.715 554.687 80.0726 561.905 80.0726Z" fill="white"/>
</svg>
