<svg width="134" height="61" viewBox="0 0 134 61" fill="none" xmlns="http://www.w3.org/2000/svg">
<path d="M2.05322 1.29883H131.947V46.3405H2.05322V1.29883Z" stroke="white" stroke-width="1.29894"/>
<path fill-rule="evenodd" clip-rule="evenodd" d="M25.4341 6.5957L22.8362 41.0403H24.8171L25.7731 30.4419H28.0319L28.3268 41.0403H31.0221L29.136 6.5957H25.4341ZM85.1851 6.5957H89.821C92.3877 6.5957 92.9787 7.81982 92.9787 10.2601V37.066C92.9787 39.5036 92.2189 41.0403 89.6522 41.0403H85.1851V6.5957ZM106.03 37.0792L106.811 31.4356L107.953 6.5957H110.644L107.42 41.0403H104.018L102.071 6.5957H104.424L105.269 31.6012L105.707 37.0792H106.03ZM90.3812 37.9454C90.385 39.4604 90.3857 39.7161 89.0819 39.7161H87.783V7.92255H89.0819C90.3857 7.92255 90.385 8.17911 90.3812 9.69316C90.3811 9.77786 90.3809 9.86724 90.3809 9.95999V37.6786C90.3809 37.7713 90.3811 37.8607 90.3812 37.9454ZM100.772 41.0403H95.5766V6.5957H100.772V7.9205H98.1745V21.1684H99.9164V22.4932H98.1745V39.7156H100.772V41.0403ZM26.6447 13.5591L25.8653 29.1165H28.0321V13.5591L27.7723 9.37878H27.0317L26.6447 13.5591ZM57.9075 6.5957H55.3096V41.0403H60.5053V39.7156H57.9075V6.5957ZM67 41.0403H61.8043V6.5957H66.9857V7.9205H64.4021V21.1684H66.1245V22.4932H64.4021V39.7156H67V41.0403ZM41.9498 7.9205H44.1138V41.0403H46.5311V7.9205H48.6107V6.5957H41.9498V7.9205ZM48.0488 39.8879C48.0488 39.0144 48.745 38.308 49.614 38.308C50.4817 38.308 51.1792 39.0144 51.1792 39.8879C51.1792 40.7654 50.4817 41.4691 49.614 41.4691C48.745 41.4691 48.0488 40.7667 48.0488 39.8879ZM74.4156 6.5957H68.2989V41.0403H73.4168C75.0391 41.0403 76.0731 39.7143 76.0926 38.2662V24.654C76.0926 22.9914 75.8081 22.5753 75.2275 22.2402V21.493C75.9432 21.1287 76.0926 20.7564 76.0926 19.5947V8.69154C76.0926 7.47139 75.6405 6.5957 74.4156 6.5957ZM72.704 39.6272C73.4223 39.6272 73.4808 39.4378 73.4964 38.5252V24.376C73.4964 22.8898 73.4405 22.4924 72.7248 22.4924H70.8985L70.8816 39.6272H72.704ZM73.4926 19.3681L73.4927 19.5591C73.4943 20.8384 73.4946 21.0974 72.7769 21.1682H70.8947L70.8766 7.92255H72.7561C73.3614 7.92255 73.4926 8.20866 73.4926 8.9716V19.3681ZM33.2277 6.5957H37.896C40.4433 6.5957 41.0213 8.12982 41.0213 10.5701V22.1143C41.0213 23.981 40.755 24.071 40.0666 24.1466V24.9455C41.017 25.5109 41.0149 25.9693 41.0083 27.5013C41.0076 27.6381 41.007 27.7834 41.007 27.9381L41.0213 41.0403H38.4234V26.4676C38.4234 25.5178 38.3468 25.1428 37.5544 25.1428H35.8255V41.0403H33.2277V6.5957ZM38.4234 22.4944V22.5864C38.4242 23.5759 38.4243 23.8193 37.5973 23.8193H35.8255V7.92092L36.9166 7.89972C38.2714 7.92092 38.4234 8.81785 38.4234 10.5706V22.4944ZM83.8862 41.0403H78.6904V6.5957H83.8862V7.9205H81.2883V21.1684H83.0237V22.4932H81.2883V39.7156H83.8862V41.0403Z" fill="white"/>
<path fill-rule="evenodd" clip-rule="evenodd" d="M64.244 60.8677C61.824 60.8677 61.1447 58.2656 61.1447 56.2599C61.1447 54.2555 61.8227 51.6533 64.244 51.6533C66.6652 51.6533 67.3432 54.2555 67.3432 56.2599C67.3432 58.2656 66.6652 60.8677 64.244 60.8677ZM57.8581 54.0786C57.8581 53.101 57.1333 52.6479 56.4319 52.6479C55.8006 52.6479 55.133 52.9937 54.6303 53.4109L54.1042 52.7552C54.7121 52.0638 55.7058 51.6584 56.5943 51.6584C57.8685 51.6584 59.0739 52.4096 59.0739 54.0786C59.0739 56.1185 56.7709 58.3718 55.4486 59.6131H59.1908V60.6622H54.0107V59.8038C54.1832 59.6214 54.3785 59.4221 54.5877 59.209C55.9377 57.833 57.8581 55.8759 57.8581 54.0786ZM62.2965 56.2603C62.2965 54.9847 62.6004 52.5514 64.2488 52.5514C65.8984 52.5514 66.2024 54.9847 66.2024 56.2603C66.2024 57.5371 65.8984 59.9822 64.2488 59.9822C62.6004 59.9822 62.2965 57.5371 62.2965 56.2603ZM72.7259 54.0786C72.7259 53.101 72.0011 52.6479 71.2997 52.6479C70.6684 52.6479 70.0007 52.9937 69.4979 53.4109L68.9718 52.7552C69.5797 52.0638 70.5735 51.6584 71.462 51.6584C72.7363 51.6584 73.9417 52.4096 73.9417 54.0786C73.9417 56.1185 71.6387 58.3718 70.3164 59.6131H74.0586V60.6622H68.8783V59.8038C69.0499 59.6226 69.2441 59.4247 69.4517 59.2133C70.8024 57.8372 72.7259 55.8777 72.7259 54.0786ZM78.3031 51.7549L75.778 53.2808L75.9871 53.7815C75.9871 53.7815 77.8927 53.0529 77.881 53.0649V59.684L76.3261 59.9702V60.5556H80.5944V59.9714L79.0396 59.6853V51.7549H78.3031Z" fill="white"/>
</svg>
