<svg width="263" height="53" viewBox="0 0 263 53" fill="none" xmlns="http://www.w3.org/2000/svg">
<g clip-path="url(#clip0_4319_21672)">
<g clip-path="url(#clip1_4319_21672)">
<g clip-path="url(#clip2_4319_21672)">
<path fill-rule="evenodd" clip-rule="evenodd" d="M11.2965 19.8244C10.7771 16.4982 11.341 12.8539 12.7803 9.7881C19.7989 -5.00597 45.1285 -2.15706 45.2769 17.3804C45.2769 18.1323 45.2621 18.8844 45.2028 19.6364C48.4376 20.8656 51.4201 23.165 53.4234 25.8982C63.1427 39.1738 47.933 59.0149 30.3937 49.3691C29.7113 48.9932 29.0583 48.6027 28.4202 48.1689C25.7047 50.2657 22.1583 51.625 18.7009 51.9433C1.96296 53.4617 -8.15698 30.7717 9.23389 20.8946C9.90164 20.5041 10.599 20.157 11.2965 19.8244ZM43.259 28.183C41.7008 32.3769 39.3563 36.3394 36.5815 39.8824C34.2073 38.8557 31.6996 37.207 29.8151 35.7031C33.866 30.7428 37.4125 23.7724 36.4924 17.6117C35.1867 7.64781 21.6983 7.93703 19.8732 17.1924C24.399 16.397 29.1177 16.397 33.6731 16.9466C33.9402 19.4483 33.7325 22.384 33.317 24.7123C26.8473 23.8012 18.8642 24.3074 13.8042 28.1542C5.55392 34.2424 12.5578 45.4067 21.7429 42.2975C18.7752 38.899 16.401 34.9366 14.6203 30.8439C16.7274 29.3689 19.4428 28.0818 21.7429 27.272C24.1616 33.1578 28.6131 39.6076 34.5782 41.9215C44.1493 45.7827 50.6337 34.3292 43.259 28.183Z" fill="white"/>
<path fill-rule="evenodd" clip-rule="evenodd" d="M74.3594 18.4224H80.7285V13.4324H74.3594V18.4224ZM74.5163 40.4498H80.549V20.6147H74.5163V40.4498ZM85.7745 40.4498H91.8072V29.384C91.8072 26.7114 93.2873 25.3542 95.5748 25.3542C97.8849 25.3542 99.2305 26.7322 99.2305 29.384V40.4498H105.263V27.6092C105.263 23.0575 102.594 20.2389 98.0194 20.2389C94.9469 20.2389 93.1752 21.7631 91.7848 23.4126V20.5938H85.7521V40.4498H85.7745ZM118.809 40.8256C121.949 40.8256 123.967 39.4476 125.447 37.6102V40.4707H131.48V13.4324H125.447V23.2038C124.012 21.6169 122.038 20.2389 118.809 20.2389C113.763 20.2389 109.098 23.8719 109.098 30.4905C109.121 37.1926 113.853 40.8256 118.809 40.8256ZM120.356 36.0444C117.53 36.0444 115.153 33.852 115.153 30.574C115.153 27.1707 117.53 25.0201 120.356 25.0201C123.182 25.0201 125.514 27.2125 125.514 30.4905C125.537 33.8728 123.182 36.0444 120.356 36.0444ZM146.887 40.9092C153.525 40.9092 158.459 36.2739 158.459 30.574C158.459 24.7906 153.57 20.2389 146.976 20.2389C140.338 20.2389 135.404 24.874 135.404 30.574C135.404 36.3366 140.293 40.9092 146.887 40.9092ZM146.954 36.0444C143.613 36.0444 141.348 33.4971 141.348 30.574C141.348 27.5675 143.411 25.1037 146.864 25.1037C150.205 25.1037 152.471 27.6509 152.471 30.574C152.493 33.5597 150.431 36.0444 146.954 36.0444ZM162.631 40.4498H168.664V13.4324H162.631V40.4498ZM183.981 40.9092C187.838 40.9092 190.708 39.5103 192.682 37.2136L189.228 34.3531C187.568 35.7937 186.088 36.3993 184.07 36.3993C181.357 36.3993 179.45 35.063 178.868 32.5158H193.692C193.736 31.9938 193.781 31.4718 193.781 31.0334C193.781 25.4169 190.529 20.2598 183.398 20.2598C177.185 20.2598 172.856 24.9158 172.856 30.5949C172.856 36.7124 177.589 40.9092 183.981 40.9092ZM178.777 28.9872C179.249 26.44 180.886 24.7696 183.398 24.7696C185.954 24.7696 187.524 26.4817 187.883 28.9872H178.777ZM203.828 40.8256C206.766 40.8256 208.806 39.8234 210.265 38.2992V40.4498H216.117V28.9455C216.117 26.2729 215.4 24.1016 213.808 22.6192C212.306 21.2203 209.906 20.4059 206.609 20.4059C202.999 20.4059 200.688 21.0323 198.334 21.9927L199.836 26.2939C201.787 25.6257 203.424 25.2291 205.712 25.2291C208.739 25.2291 210.287 26.5235 210.287 28.8619V29.196C208.785 28.7158 207.214 28.3817 205.084 28.3817C200.038 28.3817 196.494 30.3861 196.494 34.7081C196.494 38.675 199.814 40.8256 203.828 40.8256ZM205.645 36.9421C203.693 36.9421 202.348 36.0444 202.348 34.541C202.348 32.6828 203.94 31.7224 206.52 31.7224C208 31.7224 209.345 32.0146 210.377 32.4531V33.4553C210.377 35.5015 208.47 36.9421 205.645 36.9421ZM229.573 40.8256C232.713 40.8256 234.754 39.4476 236.213 37.6102V40.4707H242.245V13.4324H236.213V23.2038C234.777 21.6169 232.804 20.2389 229.573 20.2389C224.527 20.2389 219.864 23.8719 219.864 30.4905C219.885 37.1926 224.618 40.8256 229.573 40.8256ZM231.144 36.0444C228.317 36.0444 225.94 33.852 225.94 30.574C225.94 27.1707 228.317 25.0201 231.144 25.0201C233.969 25.0201 236.302 27.2125 236.302 30.4905C236.302 33.8728 233.969 36.0444 231.144 36.0444ZM254.669 40.8256C259.289 40.8256 262.81 38.8213 262.81 34.4157C262.81 30.7202 259.356 29.384 256.373 28.4653C254.064 27.7345 252.046 27.2125 252.046 26.1059C252.046 25.2499 252.808 24.6652 254.266 24.6652C255.813 24.6652 257.921 25.3752 260.029 26.5235L262.339 22.64C260.029 21.1993 257.091 20.3433 254.378 20.3433C250.094 20.3433 246.596 22.5983 246.596 26.6278C246.596 30.5532 249.982 31.8476 252.964 32.6619C255.32 33.3301 257.383 33.7267 257.383 34.9586C257.383 35.919 256.597 36.5036 254.848 36.5036C252.852 36.5036 250.43 35.6893 248.121 34.1443L245.541 37.8399C248.345 39.9069 251.686 40.8256 254.669 40.8256Z" fill="white"/>
</g>
</g>
</g>
<defs>
<clipPath id="clip0_4319_21672">
<rect width="262.64" height="51.98" fill="white" transform="translate(0.169998 0.419998)"/>
</clipPath>
<clipPath id="clip1_4319_21672">
<rect width="262.64" height="51.98" fill="white" transform="translate(0.169998 0.419998)"/>
</clipPath>
<clipPath id="clip2_4319_21672">
<rect width="262.64" height="51.9947" fill="white" transform="translate(0.169998 0.41264)"/>
</clipPath>
</defs>
</svg>
