<svg width="128" height="127" viewBox="0 0 128 127" fill="none" xmlns="http://www.w3.org/2000/svg">
<g clip-path="url(#clip0_4319_21989)">
<g clip-path="url(#clip1_4319_21989)">
<g clip-path="url(#clip2_4319_21989)">
<path d="M100.672 0.0898438H27.3079C12.5741 0.0898438 0.630005 12.0339 0.630005 26.7677V100.132C0.630005 114.866 12.5741 126.81 27.3079 126.81H100.672C115.406 126.81 127.35 114.866 127.35 100.132V26.7677C127.35 12.0339 115.406 0.0898438 100.672 0.0898438Z" fill="#2D88FF"/>
<path d="M73.4852 41.4007H79.3298V31.2204C78.3215 31.0817 74.8536 30.7695 70.8149 30.7695C62.3881 30.7695 56.6154 36.0704 56.6154 45.8132V54.7796H47.3163V66.1604H56.6154V94.7965H68.0166V66.1631H76.9396L78.3562 54.7823H68.014V46.9417C68.0166 43.6523 68.9023 41.4007 73.4852 41.4007Z" fill="white"/>
</g>
</g>
</g>
<defs>
<clipPath id="clip0_4319_21989">
<rect width="126.72" height="126.72" fill="white" transform="translate(0.630005 0.0898438)"/>
</clipPath>
<clipPath id="clip1_4319_21989">
<rect width="126.72" height="126.72" fill="white" transform="translate(0.630005 0.0898438)"/>
</clipPath>
<clipPath id="clip2_4319_21989">
<rect width="126.72" height="126.72" fill="white" transform="translate(0.630005 0.0898438)"/>
</clipPath>
</defs>
</svg>
