<svg width="128" height="127" viewBox="0 0 128 127" fill="none" xmlns="http://www.w3.org/2000/svg">
<g clip-path="url(#clip0_4319_21995)">
<g clip-path="url(#clip1_4319_21995)">
<g clip-path="url(#clip2_4319_21995)">
<path d="M100.342 0.0898438H26.9779C12.2441 0.0898438 0.299988 12.0339 0.299988 26.7677V100.132C0.299988 114.866 12.2441 126.81 26.9779 126.81H100.342C115.076 126.81 127.02 114.866 127.02 100.132V26.7677C127.02 12.0339 115.076 0.0898438 100.342 0.0898438Z" fill="url(#paint0_linear_4319_21995)"/>
<path d="M93.6742 51.134C93.5332 47.9357 93.0161 45.7371 92.2752 43.8317C91.5109 41.8094 90.3351 39.9988 88.7946 38.4936C87.2894 36.965 85.4668 35.7773 83.4678 35.0248C81.5516 34.284 79.3643 33.7668 76.1662 33.6258C72.944 33.4728 71.9212 33.4375 63.7489 33.4375C55.5768 33.4375 54.554 33.4728 51.3439 33.6138C48.1456 33.7548 45.9469 34.2725 44.0421 35.013C42.0193 35.7773 40.2086 36.9531 38.7035 38.4936C37.1748 39.9988 35.9875 41.8214 35.2347 43.8203C34.4938 45.7371 33.9767 47.9239 33.8357 51.122C33.6827 54.3442 33.6473 55.367 33.6473 63.5391C33.6473 71.7113 33.6827 72.7342 33.8237 75.9443C33.9647 79.1426 34.4824 81.3413 35.2232 83.2465C35.9875 85.2689 37.1748 87.0795 38.7035 88.5847C40.2086 90.1132 42.0313 91.301 44.0301 92.0534C45.9469 92.7943 48.1337 93.3115 51.3324 93.4525C54.542 93.594 55.5654 93.6288 63.7375 93.6288C71.9096 93.6288 72.9325 93.594 76.1427 93.4525C79.3408 93.3115 81.5396 92.7943 83.4444 92.0534C87.4896 90.4895 90.6877 87.2912 92.2517 83.2465C92.9922 81.3298 93.5099 79.1426 93.6509 75.9443C93.7919 72.7342 93.8272 71.7113 93.8272 63.5391C93.8272 55.367 93.8153 54.3442 93.6742 51.134ZM88.2539 75.7092C88.1244 78.6488 87.6306 80.2361 87.2191 81.2944C86.2076 83.9166 84.1265 85.9978 81.5043 87.0093C80.446 87.4208 78.8472 87.9146 75.919 88.0436C72.7442 88.1851 71.7921 88.22 63.7609 88.22C55.7298 88.22 54.7657 88.1851 51.6024 88.0436C48.6629 87.9146 47.0754 87.4208 46.0172 87.0093C44.7123 86.5269 43.5244 85.7626 42.5603 84.7632C41.5609 83.7871 40.7966 82.6113 40.3143 81.3063C39.9028 80.2481 39.409 78.6488 39.28 75.7212C39.1385 72.5464 39.1035 71.5937 39.1035 63.5626C39.1035 55.5315 39.1385 54.5673 39.28 51.4045C39.409 48.4649 39.9028 46.8776 40.3143 45.8192C40.7966 44.5139 41.5609 43.3266 42.5723 42.3619C43.5479 41.3626 44.7237 40.5982 46.0291 40.1164C47.0874 39.7048 48.6867 39.2111 51.6144 39.0816C54.7892 38.9406 55.7417 38.9051 63.7724 38.9051C71.8155 38.9051 72.7677 38.9406 75.931 39.0816C78.8705 39.2111 80.458 39.7048 81.5162 40.1164C82.8211 40.5982 84.0089 41.3626 84.9731 42.3619C85.9724 43.3381 86.7368 44.5139 87.2191 45.8192C87.6306 46.8776 88.1244 48.4764 88.2539 51.4045C88.3949 54.5793 88.4303 55.5315 88.4303 63.5626C88.4303 71.5937 88.3949 72.5344 88.2539 75.7092Z" fill="white"/>
<path d="M63.7491 48.0771C55.2127 48.0771 48.2867 55.0029 48.2867 63.5398C48.2867 72.0768 55.2127 79.0026 63.7491 79.0026C72.2859 79.0026 79.2115 72.0768 79.2115 63.5398C79.2115 55.0029 72.2859 48.0771 63.7491 48.0771ZM63.7491 73.5701C58.2111 73.5701 53.719 69.0784 53.719 63.5398C53.719 58.0013 58.2111 53.5096 63.7491 53.5096C69.2874 53.5096 73.7791 58.0013 73.7791 63.5398C73.7791 69.0784 69.2874 73.5701 63.7491 73.5701Z" fill="white"/>
<path d="M83.4331 47.4657C83.4331 49.4592 81.8167 51.0757 79.8229 51.0757C77.8294 51.0757 76.2131 49.4592 76.2131 47.4657C76.2131 45.4715 77.8294 43.8555 79.8229 43.8555C81.8167 43.8555 83.4331 45.4715 83.4331 47.4657Z" fill="white"/>
</g>
</g>
</g>
<defs>
<linearGradient id="paint0_linear_4319_21995" x1="5.42913" y1="10.9352" x2="142.276" y2="46.8228" gradientUnits="userSpaceOnUse">
<stop stop-color="#FFB800"/>
<stop offset="0.473958" stop-color="#FF006B"/>
<stop offset="1" stop-color="#5900CB"/>
</linearGradient>
<clipPath id="clip0_4319_21995">
<rect width="126.72" height="126.72" fill="white" transform="translate(0.299988 0.0898438)"/>
</clipPath>
<clipPath id="clip1_4319_21995">
<rect width="126.72" height="126.72" fill="white" transform="translate(0.299988 0.0898438)"/>
</clipPath>
<clipPath id="clip2_4319_21995">
<rect width="126.72" height="126.72" fill="white" transform="translate(0.299988 0.0898438)"/>
</clipPath>
</defs>
</svg>
