<svg width="128" height="127" viewBox="0 0 128 127" fill="none" xmlns="http://www.w3.org/2000/svg">
<g clip-path="url(#clip0_4319_22016)">
<g clip-path="url(#clip1_4319_22016)">
<g clip-path="url(#clip2_4319_22016)">
<path d="M100.352 0.0898438H26.988C12.2542 0.0898438 0.310059 12.0339 0.310059 26.7677V100.132C0.310059 114.866 12.2542 126.81 26.988 126.81H100.352C115.086 126.81 127.03 114.866 127.03 100.132V26.7677C127.03 12.0339 115.086 0.0898438 100.352 0.0898438Z" fill="#0077B7"/>
<path d="M83.8826 38.7725H43.4576C40.9919 38.7725 38.993 40.7713 38.993 43.237V83.662C38.993 86.1277 40.9919 88.1266 43.4576 88.1266H83.8826C86.3483 88.1266 88.3471 86.1277 88.3471 83.662V43.237C88.3471 40.7713 86.3483 38.7725 83.8826 38.7725ZM54.2653 81.388C54.2653 82.1056 53.6836 82.6872 52.9661 82.6872H47.4355C46.718 82.6872 46.1363 82.1056 46.1363 81.388V58.2044C46.1363 57.4869 46.718 56.9052 47.4355 56.9052H52.9661C53.6836 56.9052 54.2653 57.4869 54.2653 58.2044V81.388ZM50.2008 54.7198C47.2991 54.7198 44.9468 52.3674 44.9468 49.4658C44.9468 46.5641 47.2991 44.2117 50.2008 44.2117C53.1024 44.2117 55.4548 46.5641 55.4548 49.4658C55.4548 52.3674 53.1026 54.7198 50.2008 54.7198ZM83.1675 81.4927C83.1675 82.1525 82.6326 82.6872 81.973 82.6872H76.0384C75.3786 82.6872 74.8437 82.1525 74.8437 81.4927V70.6183C74.8437 68.996 75.3197 63.5095 70.6043 63.5095C66.9468 63.5095 66.205 67.2649 66.056 68.9502V81.4927C66.056 82.1525 65.5213 82.6872 64.8614 82.6872H59.1216C58.4619 82.6872 57.927 82.1525 57.927 81.4927V58.0998C57.927 57.4401 58.4619 56.9052 59.1216 56.9052H64.8614C65.5211 56.9052 66.056 57.4401 66.056 58.0998V60.1224C67.4122 58.0871 69.4277 56.5162 73.7191 56.5162C83.2219 56.5162 83.1675 65.3942 83.1675 70.2722V81.4927Z" fill="white"/>
</g>
</g>
</g>
<defs>
<clipPath id="clip0_4319_22016">
<rect width="126.72" height="126.72" fill="white" transform="translate(0.310059 0.0898438)"/>
</clipPath>
<clipPath id="clip1_4319_22016">
<rect width="126.72" height="126.72" fill="white" transform="translate(0.310059 0.0898438)"/>
</clipPath>
<clipPath id="clip2_4319_22016">
<rect width="126.72" height="126.72" fill="white" transform="translate(0.310059 0.0898438)"/>
</clipPath>
</defs>
</svg>
