<svg width="128" height="127" viewBox="0 0 128 127" fill="none" xmlns="http://www.w3.org/2000/svg">
<g clip-path="url(#clip0_4319_22022)">
<g clip-path="url(#clip1_4319_22022)">
<g clip-path="url(#clip2_4319_22022)">
<path d="M101.022 0.0898438H27.658C12.9242 0.0898438 0.980103 12.0339 0.980103 26.7677V100.132C0.980103 114.866 12.9242 126.81 27.658 126.81H101.022C115.756 126.81 127.7 114.866 127.7 100.132V26.7677C127.7 12.0339 115.756 0.0898438 101.022 0.0898438Z" fill="#039BE5"/>
<path d="M35.6642 59.1477L86.531 39.0188C88.8918 38.1434 90.9538 39.6099 90.1888 43.2738L90.1932 43.2693L81.5322 85.1469C80.8903 88.1159 79.1714 88.8378 76.7665 87.4391L63.5772 77.4626L57.2156 83.7526C56.5121 84.4746 55.9186 85.0837 54.5557 85.0837L55.4922 71.308L79.9363 48.6433C81.0003 47.6822 79.6989 47.1408 78.2965 48.0973L48.0885 67.617L35.0663 63.4478C32.2395 62.5273 32.1778 60.5464 35.6642 59.1477Z" fill="white"/>
</g>
</g>
</g>
<defs>
<clipPath id="clip0_4319_22022">
<rect width="126.72" height="126.72" fill="white" transform="translate(0.980103 0.0898438)"/>
</clipPath>
<clipPath id="clip1_4319_22022">
<rect width="126.72" height="126.72" fill="white" transform="translate(0.980103 0.0898438)"/>
</clipPath>
<clipPath id="clip2_4319_22022">
<rect width="126.72" height="126.72" fill="white" transform="translate(0.980103 0.0898438)"/>
</clipPath>
</defs>
</svg>
