<svg width="128" height="127" viewBox="0 0 128 127" fill="none" xmlns="http://www.w3.org/2000/svg">
<g clip-path="url(#clip0_4319_22003)">
<g clip-path="url(#clip1_4319_22003)">
<g clip-path="url(#clip2_4319_22003)">
<path d="M101.012 0.0898438H27.6479C12.9141 0.0898438 0.969971 12.0339 0.969971 26.7677V100.132C0.969971 114.866 12.9141 126.81 27.6479 126.81H101.012C115.746 126.81 127.69 114.866 127.69 100.132V26.7677C127.69 12.0339 115.746 0.0898438 101.012 0.0898438Z" fill="#1D9BF0"/>
<path d="M93.0087 46.8095C91.0245 47.72 88.9103 48.3236 86.706 48.6165C88.9737 47.2002 90.7044 44.9745 91.5181 42.2917C89.4038 43.6104 87.0695 44.5419 84.5818 45.0617C82.5743 42.8254 79.7131 41.4404 76.5918 41.4404C70.5359 41.4404 65.6605 46.5827 65.6605 52.8867C65.6605 53.7938 65.7339 54.6659 65.9139 55.4962C56.8201 55.0321 48.7734 50.4725 43.3678 43.5266C42.4241 45.2396 41.8705 47.2002 41.8705 49.3108C41.8705 53.2739 43.8213 56.787 46.7292 58.8208C44.9718 58.786 43.2477 58.2522 41.7871 57.4114C41.7871 57.4464 41.7871 57.4917 41.7871 57.5371C41.7871 63.0979 45.5787 67.717 50.5508 68.781C49.6604 69.0356 48.69 69.1577 47.6829 69.1577C46.9826 69.1577 46.2757 69.1158 45.6121 68.9624C47.0293 73.4942 51.051 76.8257 55.833 76.9339C52.1115 79.9796 47.3861 81.8145 42.2707 81.8145C41.3736 81.8145 40.5133 81.7727 39.6529 81.6576C44.4983 84.9265 50.2407 86.7929 56.4333 86.7929C76.5618 86.7929 87.5664 69.3496 87.5664 54.2298C87.5664 53.724 87.5497 53.2355 87.5264 52.7507C89.6973 51.1389 91.5214 49.1259 93.0087 46.8095Z" fill="white"/>
</g>
</g>
</g>
<defs>
<clipPath id="clip0_4319_22003">
<rect width="126.72" height="126.72" fill="white" transform="translate(0.969971 0.0898438)"/>
</clipPath>
<clipPath id="clip1_4319_22003">
<rect width="126.72" height="126.72" fill="white" transform="translate(0.969971 0.0898438)"/>
</clipPath>
<clipPath id="clip2_4319_22003">
<rect width="126.72" height="126.72" fill="white" transform="translate(0.969971 0.0898438)"/>
</clipPath>
</defs>
</svg>
