<svg width="128" height="127" viewBox="0 0 128 127" fill="none" xmlns="http://www.w3.org/2000/svg">
<g clip-path="url(#clip0_4319_22028)">
<g clip-path="url(#clip1_4319_22028)">
<g clip-path="url(#clip2_4319_22028)">
<path d="M100.702 0.0898438H27.3379C12.6041 0.0898438 0.660034 12.0339 0.660034 26.7677V100.132C0.660034 114.866 12.6041 126.81 27.3379 126.81H100.702C115.436 126.81 127.38 114.866 127.38 100.132V26.7677C127.38 12.0339 115.436 0.0898438 100.702 0.0898438Z" fill="#3776BF"/>
<path fill-rule="evenodd" clip-rule="evenodd" d="M93.1539 49.1895C93.5799 47.77 93.1539 46.7764 91.1667 46.7764H84.5423C82.8388 46.7764 82.0818 47.6754 81.6559 48.669C81.6559 48.669 78.2964 56.9022 73.5174 62.2018C71.9558 63.7633 71.2934 64.2364 70.4417 64.2364C70.0158 64.2364 69.4007 63.7633 69.4007 62.3437V49.1895C69.4007 47.4861 68.9276 46.7764 67.5081 46.7764H57.0982C56.0573 46.7764 55.3948 47.5807 55.3948 48.2905C55.3948 49.8993 57.7606 50.2778 58.0446 54.7257V64.473C58.0446 66.6023 57.6661 66.9809 56.8144 66.9809C54.5905 66.9809 49.1017 58.7477 45.884 49.2842C45.2216 47.5335 44.6066 46.7764 42.9031 46.7764H36.2787C34.386 46.7764 34.0074 47.6754 34.0074 48.669C34.0074 50.4198 36.2313 59.1262 44.4645 70.6243C49.9534 78.4789 57.6661 82.7375 64.669 82.7375C68.8803 82.7375 69.4007 81.7911 69.4007 80.1823V74.2203C69.4007 72.3277 69.7793 71.9491 71.1515 71.9491C72.1451 71.9491 73.8013 72.4224 77.7286 76.2077C82.2237 80.7028 82.9809 82.7375 85.4886 82.7375H92.113C94.0058 82.7375 94.952 81.7911 94.3842 79.9458C93.7691 78.1004 91.6398 75.4034 88.8008 72.1857C87.2393 70.3404 84.9207 68.4004 84.2583 67.4067C83.2647 66.1292 83.5486 65.5613 84.2583 64.473C84.2583 64.4257 92.3496 53.0696 93.1539 49.1895Z" fill="white"/>
</g>
</g>
</g>
<defs>
<clipPath id="clip0_4319_22028">
<rect width="126.72" height="126.72" fill="white" transform="translate(0.660034 0.0898438)"/>
</clipPath>
<clipPath id="clip1_4319_22028">
<rect width="126.72" height="126.72" fill="white" transform="translate(0.660034 0.0898438)"/>
</clipPath>
<clipPath id="clip2_4319_22028">
<rect width="126.72" height="126.72" fill="white" transform="translate(0.660034 0.0898438)"/>
</clipPath>
</defs>
</svg>
