<svg width="128" height="127" viewBox="0 0 128 127" fill="none" xmlns="http://www.w3.org/2000/svg">
<g clip-path="url(#clip0_4319_22009)">
<g clip-path="url(#clip1_4319_22009)">
<g clip-path="url(#clip2_4319_22009)">
<path d="M100.682 0.0898438H27.3178C12.5841 0.0898438 0.639954 12.0339 0.639954 26.7677V100.132C0.639954 114.866 12.5841 126.81 27.3178 126.81H100.682C115.416 126.81 127.36 114.866 127.36 100.132V26.7677C127.36 12.0339 115.416 0.0898438 100.682 0.0898438Z" fill="#FF0000"/>
<path d="M94.0548 48.4007C93.332 45.7149 91.2146 43.598 88.5294 42.8748C83.6234 41.5322 63.9993 41.5322 63.9993 41.5322C63.9993 41.5322 44.3758 41.5322 39.4698 42.8236C36.8363 43.5463 34.6671 45.7155 33.9444 48.4007C32.6534 53.3063 32.6534 63.4799 32.6534 63.4799C32.6534 63.4799 32.6534 73.7046 33.9444 78.559C34.6676 81.2441 36.7846 83.3617 39.4703 84.0848C44.4275 85.4275 63.9998 85.4275 63.9998 85.4275C63.9998 85.4275 83.6234 85.4275 88.5294 84.136C91.215 83.4133 93.332 81.2959 94.0553 78.6106C95.3462 73.7046 95.3462 63.5315 95.3462 63.5315C95.3462 63.5315 95.3979 53.3063 94.0548 48.4007Z" fill="white"/>
<path d="M57.7513 72.8786L74.0698 63.4798L57.7513 54.0811V72.8786Z" fill="#FF0000"/>
</g>
</g>
</g>
<defs>
<clipPath id="clip0_4319_22009">
<rect width="126.72" height="126.72" fill="white" transform="translate(0.639954 0.0898438)"/>
</clipPath>
<clipPath id="clip1_4319_22009">
<rect width="126.72" height="126.72" fill="white" transform="translate(0.639954 0.0898438)"/>
</clipPath>
<clipPath id="clip2_4319_22009">
<rect width="126.72" height="126.72" fill="white" transform="translate(0.639954 0.0898438)"/>
</clipPath>
</defs>
</svg>
